<svg viewBox="0 0 16.0336 15.9997" xmlns="http://www.w3.org/2000/svg" xmlns:xlink="http://www.w3.org/1999/xlink" width="16.033569" height="15.999664" fill="none" customFrame="#000000">
	<path id="close" d="M9.48568 7.99995L15.7288 1.76968C16.1351 1.36443 16.1351 0.709193 15.7288 0.30394C15.3227 -0.101313 14.6661 -0.101313 14.26 0.30394L8.01668 6.53421L1.77354 0.30394C1.36724 -0.101313 0.710822 -0.101313 0.30472 0.30394C-0.101573 0.709193 -0.101573 1.36443 0.30472 1.76968L6.54786 7.99995L0.30472 14.2302C-0.101573 14.6355 -0.101573 15.2907 0.30472 15.696C0.507105 15.8981 0.773212 15.9997 1.03913 15.9997C1.30504 15.9997 1.57096 15.8981 1.77354 15.696L8.01668 9.4657L14.26 15.696C14.4626 15.8981 14.7285 15.9997 14.9944 15.9997C15.2603 15.9997 15.5262 15.8981 15.7288 15.696C16.1351 15.2907 16.1351 14.6355 15.7288 14.2302L9.48568 7.99995Z" fill="rgb(255,255,255)" fill-rule="nonzero" />
</svg>
