<svg viewBox="0 0 17.1296 13.3333" xmlns="http://www.w3.org/2000/svg" xmlns:xlink="http://www.w3.org/1999/xlink" width="17.129639" height="13.333252" fill="none" customFrame="#000000">
	<path id="email" d="M15.4167 0L1.71296 0C0.770833 0 0.00856481 0.75 0.00856481 1.66667L0 11.6667C0 12.5833 0.770833 13.3333 1.71296 13.3333L15.4167 13.3333C16.3588 13.3333 17.1296 12.5833 17.1296 11.6667L17.1296 1.66667C17.1296 0.75 16.3588 0 15.4167 0ZM15.0741 3.54167L9.01875 7.225C8.74468 7.39167 8.38495 7.39167 8.11088 7.225L2.05556 3.54167C1.96967 3.49476 1.89447 3.43138 1.83449 3.35538C1.77451 3.27937 1.731 3.19231 1.7066 3.09948C1.68221 3.00664 1.67742 2.90995 1.69254 2.81526C1.70766 2.72057 1.74237 2.62984 1.79457 2.54858C1.84677 2.46732 1.91537 2.39721 1.99622 2.3425C2.07708 2.28778 2.1685 2.24959 2.26496 2.23025C2.36142 2.2109 2.46091 2.21081 2.55742 2.22996C2.65392 2.24911 2.74542 2.28711 2.82639 2.34167L8.56482 5.83333L14.3032 2.34167C14.3842 2.28711 14.4757 2.24911 14.5722 2.22996C14.6687 2.21081 14.7682 2.2109 14.8647 2.23025C14.9611 2.24959 15.0526 2.28778 15.1334 2.3425C15.2143 2.39721 15.2829 2.46732 15.3351 2.54858C15.3873 2.62984 15.422 2.72057 15.4371 2.81526C15.4522 2.90995 15.4474 3.00664 15.423 3.09948C15.3986 3.19231 15.3551 3.27937 15.2951 3.35538C15.2352 3.43138 15.16 3.49476 15.0741 3.54167Z" fill="rgb(189,189,189)" fill-rule="nonzero" />
</svg>
