<svg viewBox="0 0 20.5535 19.8779" xmlns="http://www.w3.org/2000/svg" xmlns:xlink="http://www.w3.org/1999/xlink" width="20.553467" height="19.877930" fill="none" customFrame="#000000">
	<path id="facebook" d="M10.2768 0C4.60136 0 0 4.477 0 9.999C0 14.989 3.75756 19.125 8.67136 19.878L8.67136 12.89L6.06081 12.89L6.06081 9.999L8.67136 9.999L8.67136 7.796C8.67136 5.288 10.2058 3.905 12.5523 3.905C13.6766 3.905 14.8545 4.1 14.8545 4.1L14.8545 6.559L13.5554 6.559C12.2809 6.559 11.8821 7.331 11.8821 8.122L11.8821 9.997L14.7301 9.997L14.2748 12.888L11.8821 12.888L11.8821 19.876C16.7959 19.127 20.5535 14.99 20.5535 9.999C20.5535 4.477 15.9521 0 10.2768 0Z" fill="rgb(189,189,189)" fill-rule="nonzero" />
</svg>
