<svg viewBox="0 0 14 14" xmlns="http://www.w3.org/2000/svg" xmlns:xlink="http://www.w3.org/1999/xlink" width="14.000000" height="14.000000" fill="none">
	<rect id="home" width="14.000000" height="14.000000" x="0.000000" y="0.000000" fill="rgb(255,255,255)" fill-opacity="0" />
	<path id="Vector" d="M7.35796 0.706254C7.14732 0.542414 6.85236 0.542414 6.6417 0.706254L1.3917 4.78959C1.2496 4.90009 1.1665 5.07003 1.1665 5.25003L1.1665 11.6667C1.1665 12.1308 1.35088 12.576 1.67906 12.9042C2.00726 13.2323 2.45238 13.4167 2.9165 13.4167L11.0832 13.4167C11.5473 13.4167 11.9924 13.2323 12.3206 12.9042C12.6488 12.576 12.8332 12.1308 12.8332 11.6667L12.8332 5.25003C12.8332 5.07003 12.7501 4.90009 12.608 4.78959L7.35796 0.706254ZM2.33316 11.6667L2.33316 5.53533L6.99984 1.90571L11.6665 5.53533L11.6665 11.6667C11.6665 11.8214 11.605 11.9698 11.4956 12.0792C11.3863 12.1886 11.2379 12.25 11.0832 12.25L9.33316 12.25L9.33316 7.00003C9.33316 6.67787 9.072 6.41671 8.74984 6.41671L5.24984 6.41671C4.92766 6.41671 4.6665 6.67787 4.6665 7.00003L4.6665 12.25L2.9165 12.25C2.7618 12.25 2.61342 12.1886 2.50402 12.0792C2.39462 11.9698 2.33316 11.8214 2.33316 11.6667ZM5.83316 12.25L8.1665 12.25L8.1665 7.58337L5.83316 7.58337L5.83316 12.25Z" fill="rgb(255,255,255)" fill-rule="evenodd" />
</svg>
