<svg viewBox="0 0 20.5557 20" xmlns="http://www.w3.org/2000/svg" xmlns:xlink="http://www.w3.org/1999/xlink" width="20.555664" height="20.000000" fill="none" customFrame="#000000">
	<path id="instagram" d="M10.2778 20C8.88599 20 7.55443 19.7363 6.28309 19.209C5.01175 18.6816 3.91773 17.972 3.00103 17.0801C2.08433 16.1882 1.35498 15.1237 0.812988 13.8867C0.270996 12.6497 0 11.3542 0 10C0 8.64583 0.270996 7.35026 0.812988 6.11328C1.35498 4.8763 2.08433 3.81185 3.00103 2.91992C3.91773 2.02799 5.01175 1.31836 6.28309 0.791016C7.55443 0.263672 8.88599 0 10.2778 0C11.6696 0 13.0011 0.263672 14.2725 0.791016C15.5438 1.31836 16.6378 2.02799 17.5545 2.91992C18.4712 3.81185 19.2006 4.8763 19.7426 6.11328C20.2846 7.35026 20.5556 8.64583 20.5556 10C20.5556 11.3542 20.2846 12.6497 19.7426 13.8867C19.2006 15.1237 18.4712 16.1882 17.5545 17.0801C16.6378 17.972 15.5438 18.6816 14.2725 19.209C13.0011 19.7363 11.6696 20 10.2778 20ZM15.4167 6.25C15.4167 5.91146 15.2929 5.61849 15.0453 5.37109C14.7977 5.1237 14.4933 5 14.1319 5L6.42361 5C6.07567 5 5.77456 5.1237 5.52029 5.37109C5.26602 5.61849 5.13889 5.91146 5.13889 6.25L5.13889 7.5L7.4273 7.5C8.20349 6.66667 9.15365 6.25 10.2778 6.25C11.4019 6.25 12.3521 6.66667 13.1283 7.5L15.4167 7.5L15.4167 6.25ZM7.70833 10C7.70833 10.6901 7.95926 11.2793 8.4611 11.7676C8.96294 12.2559 9.5685 12.5 10.2778 12.5C10.9871 12.5 11.5926 12.2559 12.0945 11.7676C12.5963 11.2793 12.8472 10.6901 12.8472 10C12.8472 9.3099 12.5963 8.7207 12.0945 8.23242C11.5926 7.74414 10.9871 7.5 10.2778 7.5C9.5685 7.5 8.96294 7.74414 8.4611 8.23242C7.95926 8.7207 7.70833 9.3099 7.70833 10ZM15.4167 8.75L13.8911 8.75C14.0516 9.17969 14.1319 9.59635 14.1319 10C14.1319 11.0417 13.7572 11.9271 13.0078 12.6562C12.2584 13.3854 11.3484 13.75 10.2778 13.75C9.20718 13.75 8.29716 13.3854 7.54774 12.6562C6.79832 11.9271 6.42361 11.0417 6.42361 10C6.42361 9.59635 6.50391 9.17969 6.6645 8.75L5.13889 8.75L5.13889 13.75C5.13889 14.1016 5.26268 14.3978 5.51025 14.6387C5.75783 14.8796 6.06228 15 6.42361 15L14.1319 15C14.4933 15 14.7977 14.8796 15.0453 14.6387C15.2929 14.3978 15.4167 14.1016 15.4167 13.75L15.4167 8.75Z" fill="rgb(189,189,189)" fill-rule="nonzero" />
</svg>
