<svg viewBox="0 0 14.3889 19.4702" xmlns="http://www.w3.org/2000/svg" xmlns:xlink="http://www.w3.org/1999/xlink" width="14.388916" height="19.470215" fill="none" customFrame="#000000">
	<path id="map-maker" d="M7.19444 0C3.21694 0 0 3.13 0 7C0 11.17 4.54278 16.92 6.41333 19.11C6.82444 19.59 7.57472 19.59 7.98583 19.11C9.84611 16.92 14.3889 11.17 14.3889 7C14.3889 3.13 11.1719 0 7.19444 0ZM7.19444 9.5C6.51299 9.5 5.85944 9.23661 5.37757 8.76777C4.89571 8.29893 4.625 7.66304 4.625 7C4.625 6.33696 4.89571 5.70107 5.37757 5.23223C5.85944 4.76339 6.51299 4.5 7.19444 4.5C7.8759 4.5 8.52945 4.76339 9.01132 5.23223C9.49318 5.70107 9.76389 6.33696 9.76389 7C9.76389 7.66304 9.49318 8.29893 9.01132 8.76777C8.52945 9.23661 7.8759 9.5 7.19444 9.5Z" fill="rgb(189,189,189)" fill-rule="nonzero" />
</svg>
