<svg viewBox="0 0 18.7144 18.2083" xmlns="http://www.w3.org/2000/svg" xmlns:xlink="http://www.w3.org/1999/xlink" width="18.714355" height="18.208252" fill="none" customFrame="#000000">
	<path id="phone-call" d="M18.7144 8.62404L16.7445 8.62404C16.7445 4.73704 13.8408 1.91666 9.83996 1.91666L9.83996 -0C14.8997 0 18.7144 3.7078 18.7144 8.62404ZM12.5267 10.7172C12.7824 10.7096 13.0311 10.7988 13.2203 10.9662L17.2232 14.5082C17.4128 14.676 17.5277 14.9091 17.5435 15.158C17.5593 15.4069 17.4748 15.652 17.3079 15.8412L15.4759 17.9218C15.3058 18.0882 15.0785 18.1875 14.8376 18.2006C14.8051 18.2026 14.683 18.2083 14.484 18.2083C13.1228 18.2083 8.18032 17.9275 4.2346 14.0894C-0.28832 9.68682 -0.00662 4.01156 0.00816 3.77198C0.02186 3.53762 0.1235 3.3163 0.2938 3.15002L2.43114 1.36656C2.62576 1.20428 2.87774 1.1222 3.13356 1.13776C3.38938 1.15334 3.62888 1.26532 3.80122 1.44994L7.44062 5.34364C7.61288 5.52768 7.70478 5.76972 7.69686 6.0185C7.68896 6.2673 7.58188 6.50334 7.39826 6.67668L4.97626 8.97094C5.08166 9.5191 5.43722 10.6317 6.61128 11.775C7.78536 12.9145 8.92592 13.2604 9.49326 13.3659L11.8503 11.0074C12.0285 10.829 12.2711 10.7249 12.5267 10.7172ZM12.8047 8.62498C12.8047 6.6096 11.9212 5.74998 9.84982 5.74998L9.84982 3.8333C13.0263 3.8333 14.7746 5.53436 14.7746 8.62498L12.8047 8.62498Z" fill="rgb(189,189,189)" fill-rule="evenodd" />
</svg>
