<svg viewBox="0 0 14 14" xmlns="http://www.w3.org/2000/svg" xmlns:xlink="http://www.w3.org/1999/xlink" width="14.000000" height="14.000000" fill="none">
	<rect id="phone-call" width="14.000000" height="14.000000" x="0.000000" y="0.000000" fill="rgb(255,255,255)" fill-opacity="0" />
	<path id="phone-1" d="M11.6666 13.3583C11.6083 13.3583 11.5499 13.3583 11.4916 13.3583C9.62494 13.125 7.75827 12.4833 6.18327 11.4917C4.72494 10.5583 3.4416 9.27498 2.50827 7.81665C1.45827 6.24165 0.816602 4.37498 0.641602 2.50832C0.641602 2.04165 0.758268 1.57498 1.04993 1.22498C1.3416 0.874984 1.74993 0.64165 2.2166 0.583317C2.27494 0.583317 2.33327 0.583317 2.3916 0.583317L4.1416 0.583317C5.0166 0.583317 5.77494 1.22498 5.8916 2.09998C5.94994 2.62498 6.0666 3.14998 6.2416 3.61665C6.47493 4.25832 6.29993 4.95832 5.83327 5.48332L5.42494 5.89165C6.12494 6.94165 6.99994 7.87498 8.10827 8.57498L8.5166 8.16665C8.98327 7.69998 9.7416 7.52498 10.3833 7.75832C10.8499 7.93332 11.3749 8.04998 11.8999 8.10832C12.7749 8.22498 13.4166 8.98332 13.4166 9.85832L13.4166 11.6083C13.4166 12.075 13.2416 12.5417 12.8916 12.8333C12.5416 13.125 12.1333 13.3583 11.6666 13.3583ZM4.1416 1.74998L2.3916 1.74998C2.2166 1.74998 2.0416 1.86665 1.92493 1.98332C1.8666 2.09998 1.80827 2.21665 1.80827 2.39165C1.98327 4.08332 2.5666 5.71665 3.49994 7.17498C4.37494 8.51665 5.48327 9.68332 6.82493 10.5C8.28327 11.4333 9.9166 12.0167 11.6083 12.1917C11.8416 12.1917 11.9583 12.1333 12.0749 12.0167C12.1916 11.9 12.2499 11.7833 12.2499 11.6083L12.2499 9.85832C12.2499 9.56665 12.0166 9.33332 11.7249 9.27498C11.1416 9.21665 10.5583 9.04165 9.97494 8.80832C9.7416 8.74998 9.50827 8.74998 9.33327 8.92498L8.57493 9.68332C8.39993 9.85832 8.10827 9.91665 7.87494 9.79998C6.29993 8.92498 5.0166 7.64165 4.1416 6.06665C4.08327 5.83332 4.1416 5.54165 4.3166 5.36665L5.07493 4.60832C5.1916 4.49165 5.24994 4.19998 5.1916 4.02498C4.95827 3.44165 4.8416 2.85832 4.72494 2.27498C4.72494 1.98332 4.43327 1.74998 4.1416 1.74998ZM11.0833 5.83332C10.7916 5.83332 10.5583 5.65832 10.4999 5.36665C10.3249 4.43332 9.5666 3.73332 8.63327 3.49998C8.3416 3.44165 8.10827 3.14998 8.1666 2.79998C8.22494 2.50832 8.5166 2.27498 8.8666 2.33332C10.2666 2.62498 11.3749 3.67498 11.6083 5.07498C11.6666 5.36665 11.4916 5.71665 11.1416 5.77498C11.1416 5.77498 11.1416 5.83332 11.0833 5.83332ZM13.4166 5.77498C13.1249 5.77498 12.8916 5.54165 12.8333 5.24998C12.5999 3.09165 10.9083 1.39998 8.6916 1.10832C8.39993 1.04998 8.1666 0.758317 8.1666 0.46665C8.1666 0.174984 8.5166 -0.0583496 8.80827 -0.0583496C11.5499 0.233317 13.6499 2.33332 13.9416 5.07498C13.9999 5.36665 13.7666 5.65832 13.4166 5.71665C13.4749 5.77498 13.4166 5.77498 13.4166 5.77498Z" fill="rgb(255,255,255)" fill-rule="nonzero" />
</svg>
