<svg viewBox="0 0 13.3091 13.4167" xmlns="http://www.w3.org/2000/svg" xmlns:xlink="http://www.w3.org/1999/xlink" width="13.309082" height="13.416668" fill="none" customFrame="#000000">
	<path id="phone-1" d="M11.025 13.4167C10.9667 13.4167 10.9083 13.4167 10.85 13.4167C8.98333 13.1833 7.11667 12.5417 5.54167 11.55C4.08333 10.6167 2.8 9.33332 1.86667 7.87498C0.816667 6.29998 0.175 4.43332 0 2.56665C2.59052e-16 2.09998 0.116667 1.63332 0.408333 1.28332C0.7 0.933317 1.10833 0.699984 1.575 0.64165C1.63333 0.64165 1.69167 0.64165 1.75 0.64165L3.5 0.64165C4.375 0.64165 5.13333 1.28332 5.25 2.15832C5.30833 2.68332 5.425 3.20832 5.6 3.67498C5.83333 4.31665 5.65833 5.01665 5.19167 5.54165L4.78333 5.94998C5.48333 6.99998 6.35833 7.93332 7.46667 8.63332L7.875 8.22498C8.34167 7.75832 9.1 7.58332 9.74167 7.81665C10.2083 7.99165 10.7333 8.10832 11.2583 8.16665C12.1333 8.28332 12.775 9.04165 12.775 9.91665L12.775 11.6667C12.775 12.1333 12.6 12.6 12.25 12.8917C11.9 13.1833 11.4917 13.4167 11.025 13.4167ZM3.5 1.80832L1.75 1.80832C1.575 1.80832 1.4 1.92498 1.28333 2.04165C1.225 2.15832 1.16667 2.27498 1.16667 2.44998C1.34167 4.14165 1.925 5.77498 2.85833 7.23332C3.73333 8.57498 4.84167 9.74165 6.18333 10.5583C7.64167 11.4917 9.275 12.075 10.9667 12.25C11.2 12.25 11.3167 12.1917 11.4333 12.075C11.55 11.9583 11.6083 11.8417 11.6083 11.6667L11.6083 9.91665C11.6083 9.62498 11.375 9.39165 11.0833 9.33332C10.5 9.27498 9.91667 9.09999 9.33333 8.86665C9.1 8.80832 8.86667 8.80832 8.69167 8.98332L7.93333 9.74165C7.75833 9.91665 7.46667 9.97498 7.23333 9.85832C5.65833 8.98332 4.375 7.69998 3.5 6.12498C3.44167 5.89165 3.5 5.59998 3.675 5.42498L4.43333 4.66665C4.55 4.54998 4.60833 4.25832 4.55 4.08332C4.31667 3.49998 4.2 2.91665 4.08333 2.33332C4.08333 2.04165 3.79167 1.80832 3.5 1.80832ZM10.4417 5.89165C10.15 5.89165 9.91667 5.71665 9.85833 5.42498C9.68333 4.49165 8.925 3.79165 7.99167 3.55832C7.7 3.49998 7.46667 3.20832 7.525 2.85832C7.58333 2.56665 7.875 2.33332 8.225 2.39165C9.625 2.68332 10.7333 3.73332 10.9667 5.13332C11.025 5.42498 10.85 5.77498 10.5 5.83332C10.5 5.83332 10.5 5.89165 10.4417 5.89165ZM12.775 5.83332C12.4833 5.83332 12.25 5.59998 12.1917 5.30832C11.9583 3.14998 10.2667 1.45832 8.05 1.16665C7.75833 1.10832 7.525 0.81665 7.525 0.524984C7.525 0.233317 7.875 -1.62795e-05 8.16667 -1.62795e-05C10.9083 0.29165 13.0083 2.39165 13.3 5.13332C13.3583 5.42498 13.125 5.71665 12.775 5.77498C12.8333 5.83332 12.775 5.83332 12.775 5.83332Z" fill="rgb(255,255,255)" fill-rule="nonzero" />
</svg>
