<svg viewBox="0 0 8 8" xmlns="http://www.w3.org/2000/svg" xmlns:xlink="http://www.w3.org/1999/xlink" width="8.000000" height="8.000000" fill="none" customFrame="#000000">
	<defs>
		<clipPath id="clipPath_0">
			<rect width="8.000000" height="8.000000" x="0.000000" y="0.000000" fill="rgb(255,255,255)" />
		</clipPath>
	</defs>
	<g id="Star">
		<g id="star" clip-path="url(#clipPath_0)" customFrame="url(#clipPath_0)">
			<rect id="star" width="8.000000" height="8.000000" x="0.000000" y="0.000000" fill="rgb(255,255,255)" fill-opacity="0" />
			<path id="Vector (Stroke)" d="M4.00005 0.333344C4.12692 0.333344 4.2428 0.405368 4.29895 0.519136L5.25147 2.44883L7.38159 2.76018C7.50711 2.77853 7.61134 2.86653 7.65047 2.9872C7.68959 3.10787 7.65683 3.24029 7.56596 3.3288L6.02489 4.8298L6.38859 6.95033C6.41004 7.07539 6.35862 7.20179 6.25596 7.27636C6.1533 7.35094 6.01721 7.36076 5.9049 7.3017L4.00005 6.29996L2.0952 7.3017C1.9829 7.36076 1.8468 7.35094 1.74414 7.27636C1.64148 7.20179 1.59006 7.07539 1.61151 6.95033L1.97521 4.8298L0.434139 3.3288C0.343267 3.24029 0.310509 3.10787 0.349635 2.9872C0.388761 2.86653 0.492988 2.77853 0.618508 2.76018L2.74863 2.44883L3.70115 0.519136C3.7573 0.405368 3.87318 0.333344 4.00005 0.333344ZM4.00005 1.41976L3.26895 2.90089C3.22044 2.99917 3.12671 3.06732 3.01826 3.08317L1.38285 3.32221L2.56596 4.47456C2.64459 4.55114 2.68047 4.66151 2.66192 4.76969L2.38278 6.39724L3.8449 5.62832C3.94203 5.57724 4.05807 5.57724 4.1552 5.62832L5.61732 6.39723L5.33818 4.76969C5.31963 4.66151 5.35552 4.55114 5.43414 4.47456L6.61725 3.32221L4.98184 3.08317C4.87339 3.06732 4.77966 2.99917 4.73115 2.90089L4.00005 1.41976Z" fill="rgb(242,153,74)" fill-rule="evenodd" />
		</g>
		<path id="Vector 1" d="M2.33333 5L1 3L3 2.66667L4 1L5 2.66667L7 3.33333L5.66667 4.66667L6 7L4 6L2 7L2.33333 5Z" fill="rgb(242,153,74)" fill-rule="evenodd" />
	</g>
</svg>
