<svg viewBox="0 0 170.611 192.562" xmlns="http://www.w3.org/2000/svg" xmlns:xlink="http://www.w3.org/1999/xlink" width="170.611084" height="192.562500" fill="none" customFrame="#000000">
	<path id="vertical-logo" d="M37.9688 34.4375C37.9688 36.1667 37.6458 37.6562 37 38.9062C36.375 40.1562 35.5312 41.2188 34.4688 42.0938C33.4062 42.9688 32.1771 43.6875 30.7812 44.25C29.4062 44.7917 27.9688 45.2188 26.4688 45.5312C24.9688 45.8438 23.4583 46.0521 21.9375 46.1562C20.4375 46.2604 19.0312 46.3125 17.7188 46.3125C16.4271 46.3125 15.0833 46.2604 13.6875 46.1562C12.3125 46.0729 10.9375 45.9167 9.5625 45.6875C8.1875 45.4583 6.83333 45.1562 5.5 44.7812C4.16667 44.3854 2.90625 43.8958 1.71875 43.3125L1.65625 3.0625C2.82292 2.58333 4.0625 2.15625 5.375 1.78125C6.6875 1.38542 8.02083 1.0625 9.375 0.8125C10.75 0.541668 12.1146 0.34375 13.4688 0.21875C14.8229 0.0729179 16.1354 0 17.4062 0C18.8854 0 20.375 0.09375 21.875 0.28125C23.3958 0.46875 24.8542 0.78125 26.25 1.21875C27.6458 1.65625 28.9479 2.22917 30.1562 2.9375C31.3646 3.625 32.4167 4.47917 33.3125 5.5C34.2292 6.52083 34.9375 7.70833 35.4375 9.0625C35.9583 10.4167 36.2188 11.9792 36.2188 13.75C36.2188 14.9167 36.0521 16.0104 35.7188 17.0312C35.3854 18.0521 34.9062 18.9688 34.2812 19.7812C33.6562 20.5938 32.8958 21.2917 32 21.875C31.1042 22.4375 30.0938 22.8542 28.9688 23.125C30.3229 23.4792 31.5521 24 32.6562 24.6875C33.7812 25.375 34.7292 26.2083 35.5 27.1875C36.2917 28.1667 36.8958 29.2708 37.3125 30.5C37.75 31.7292 37.9688 33.0417 37.9688 34.4375ZM22.0938 16.625C22.0938 16.0208 21.9688 15.5104 21.7188 15.0938C21.4688 14.6562 21.1562 14.3021 20.7812 14.0312C20.4271 13.7604 20.0312 13.5625 19.5938 13.4375C19.1771 13.3125 18.8021 13.25 18.4688 13.25C18.0521 13.25 17.6458 13.3125 17.25 13.4375C16.8542 13.5625 16.4688 13.7083 16.0938 13.875L15.9062 20.8125C16.3854 20.8125 16.9792 20.7708 17.6875 20.6875C18.3958 20.6042 19.0729 20.4271 19.7188 20.1562C20.3854 19.8646 20.9479 19.4479 21.4062 18.9062C21.8646 18.3438 22.0938 17.5833 22.0938 16.625ZM17.6562 26.8125C17.0521 26.8125 16.4688 26.875 15.9062 27L15.7812 34.125C16.0938 34.1875 16.3958 34.25 16.6875 34.3125C17 34.3542 17.3021 34.375 17.5938 34.375C18.0312 34.375 18.5104 34.3333 19.0312 34.25C19.5521 34.1458 20.0417 33.9583 20.5 33.6875C20.9583 33.3958 21.3333 33.0104 21.625 32.5312C21.9375 32.0521 22.0938 31.4167 22.0938 30.625C22.0938 29.8333 21.9375 29.1875 21.625 28.6875C21.3333 28.1875 20.9688 27.8021 20.5312 27.5312C20.0938 27.2396 19.6146 27.0521 19.0938 26.9688C18.5729 26.8646 18.0938 26.8125 17.6562 26.8125ZM73.9062 20.3125C73.9062 22.125 73.7812 23.9375 73.5312 25.75C69.9688 25.9792 66.4271 26.3542 62.9062 26.875C59.3854 27.375 55.8646 27.875 52.3438 28.375C52.8854 29.875 53.7292 31.0729 54.875 31.9688C56.0417 32.8646 57.4271 33.3125 59.0312 33.3125C59.8646 33.3125 60.7708 33.1562 61.75 32.8438C62.75 32.5312 63.7396 32.1458 64.7188 31.6875C65.6979 31.2083 66.6354 30.6979 67.5312 30.1562C68.4271 29.6146 69.1979 29.125 69.8438 28.6875L68.3438 42.875C67.5312 43.5 66.6458 44.0312 65.6875 44.4688C64.75 44.9062 63.7708 45.2604 62.75 45.5312C61.7292 45.8021 60.6979 46 59.6562 46.125C58.6146 46.25 57.5938 46.3125 56.5938 46.3125C54.5312 46.3125 52.6458 46.0312 50.9375 45.4688C49.2292 44.9062 47.6771 44.125 46.2812 43.125C44.9062 42.1042 43.6979 40.9062 42.6562 39.5312C41.6146 38.1562 40.75 36.6562 40.0625 35.0312C39.375 33.4062 38.8542 31.6875 38.5 29.875C38.1458 28.0625 37.9688 26.2292 37.9688 24.375C37.9688 22.4375 38.1458 20.5 38.5 18.5625C38.8542 16.625 39.3854 14.7604 40.0938 12.9688C40.8229 11.1771 41.7292 9.52083 42.8125 8C43.9167 6.45833 45.1979 5.11458 46.6562 3.96875C48.1146 2.82292 49.7604 1.92708 51.5938 1.28125C53.4479 0.635418 55.4896 0.3125 57.7188 0.3125C59.5729 0.3125 61.2604 0.572918 62.7812 1.09375C64.3229 1.59375 65.6875 2.30208 66.875 3.21875C68.0833 4.11458 69.125 5.1875 70 6.4375C70.8958 7.6875 71.625 9.0625 72.1875 10.5625C72.7708 12.0417 73.1979 13.6146 73.4688 15.2812C73.7604 16.9271 73.9062 18.6042 73.9062 20.3125ZM61.4062 18.6875C61.4062 18.1042 61.3438 17.5104 61.2188 16.9062C61.0938 16.2812 60.8854 15.7188 60.5938 15.2188C60.3229 14.7188 59.9583 14.3125 59.5 14C59.0417 13.6667 58.4688 13.5 57.7812 13.5C56.9479 13.5 56.2083 13.7292 55.5625 14.1875C54.9375 14.625 54.3958 15.1875 53.9375 15.875C53.4792 16.5417 53.1042 17.2708 52.8125 18.0625C52.5208 18.8542 52.3021 19.5833 52.1562 20.25L61.4062 19.375L61.4062 18.6875ZM108 29.5625C108 32.4167 107.5 34.8854 106.5 36.9688C105.521 39.0312 104.167 40.7396 102.438 42.0938C100.729 43.4271 98.7188 44.4167 96.4062 45.0625C94.1146 45.6875 91.6458 46 89 46C87.9792 46 86.8542 45.8646 85.625 45.5938C84.4167 45.3229 83.1875 44.9896 81.9375 44.5938C80.6875 44.1771 79.4792 43.7396 78.3125 43.2812C77.1667 42.8021 76.1458 42.3542 75.25 41.9375L76.625 29.6875C78.3958 30.75 80.3542 31.5625 82.5 32.125C84.6667 32.6667 86.7917 32.9375 88.875 32.9375C89.2708 32.9375 89.75 32.9271 90.3125 32.9062C90.875 32.8646 91.4062 32.7708 91.9062 32.625C92.4271 32.4583 92.8646 32.2188 93.2188 31.9062C93.5729 31.5938 93.75 31.1458 93.75 30.5625C93.75 30.1667 93.625 29.8333 93.375 29.5625C93.125 29.2708 92.8021 29.0417 92.4062 28.875C92.0104 28.6875 91.5625 28.5521 91.0625 28.4688C90.5625 28.3646 90.0729 28.2917 89.5938 28.25C89.1146 28.2083 88.6667 28.1875 88.25 28.1875C87.8333 28.1875 87.5 28.1875 87.25 28.1875C85.4583 28.1875 83.8229 27.9062 82.3438 27.3438C80.8854 26.7812 79.625 25.9896 78.5625 24.9688C77.5208 23.9271 76.7083 22.6771 76.125 21.2188C75.5417 19.7396 75.25 18.1042 75.25 16.3125C75.25 13.8542 75.7396 11.6562 76.7188 9.71875C77.7188 7.76042 79.0417 6.10417 80.6875 4.75C82.3542 3.375 84.2604 2.32292 86.4062 1.59375C88.5521 0.864582 90.7708 0.5 93.0625 0.5C94.0833 0.5 95.1354 0.541668 96.2188 0.625C97.3021 0.6875 98.375 0.8125 99.4375 1C100.521 1.1875 101.573 1.42708 102.594 1.71875C103.615 2.01042 104.583 2.375 105.5 2.8125L104.312 15.5C102.896 15.0208 101.406 14.625 99.8438 14.3125C98.3021 13.9792 96.7917 13.8125 95.3125 13.8125C95.0417 13.8125 94.6875 13.8229 94.25 13.8438C93.8333 13.8438 93.3854 13.875 92.9062 13.9375C92.4479 13.9792 91.9792 14.0521 91.5 14.1562C91.0208 14.2604 90.5938 14.4062 90.2188 14.5938C89.8438 14.7604 89.5417 14.9896 89.3125 15.2812C89.0833 15.5729 88.9792 15.9167 89 16.3125C89.0208 16.7708 89.1875 17.125 89.5 17.375C89.8333 17.625 90.25 17.8125 90.75 17.9375C91.2708 18.0417 91.8333 18.0938 92.4375 18.0938C93.0625 18.0938 93.6771 18.0833 94.2812 18.0625C94.8854 18.0208 95.4479 17.9896 95.9688 17.9688C96.4896 17.9271 96.9167 17.9167 97.25 17.9375C98.9167 18.0417 100.417 18.3958 101.75 19C103.083 19.6042 104.208 20.4062 105.125 21.4062C106.062 22.4062 106.771 23.6042 107.25 25C107.75 26.375 108 27.8958 108 29.5625ZM142.375 1.5L142.062 14.75L132.75 15.125L131.625 44.125L118.438 44.8125L117.25 15.8125L107.938 16.3125L108.312 1.5625L142.375 1.5ZM38 144.75C38 146.771 37.6979 148.562 37.0938 150.125C36.4896 151.688 35.6562 153.062 34.5938 154.25C33.5521 155.417 32.3229 156.406 30.9062 157.219C29.4896 158.01 27.9688 158.667 26.3438 159.188C24.7396 159.688 23.0729 160.062 21.3438 160.312C19.6146 160.542 17.9167 160.667 16.25 160.688L16.25 174L1.6875 174C1.6875 171.625 1.6875 169.312 1.6875 167.062C1.70833 164.812 1.71875 162.583 1.71875 160.375C1.73958 158.146 1.75 155.906 1.75 153.656C1.77083 151.406 1.79167 149.083 1.8125 146.688C1.85417 144.146 1.86458 141.604 1.84375 139.062C1.82292 136.521 1.875 133.958 2 131.375C4.66667 130.583 7.33333 129.99 10 129.594C12.6667 129.198 15.4167 129 18.25 129C19.8542 129 21.4583 129.135 23.0625 129.406C24.6667 129.656 26.1979 130.062 27.6562 130.625C29.1354 131.188 30.5 131.896 31.75 132.75C33.0208 133.583 34.1146 134.583 35.0312 135.75C35.9479 136.917 36.6667 138.25 37.1875 139.75C37.7292 141.25 38 142.917 38 144.75ZM24.125 145.812C24.125 144.458 23.7083 143.406 22.875 142.656C22.0625 141.885 21 141.5 19.6875 141.5C19.25 141.5 18.7917 141.542 18.3125 141.625C17.8542 141.688 17.4167 141.771 17 141.875L16.625 151C16.9167 151.042 17.1979 151.062 17.4688 151.062C17.7396 151.062 18.0208 151.062 18.3125 151.062C19.0625 151.062 19.7812 150.938 20.4688 150.688C21.1771 150.438 21.8021 150.083 22.3438 149.625C22.8854 149.146 23.3125 148.594 23.625 147.969C23.9583 147.323 24.125 146.604 24.125 145.812ZM67.1875 157L65.875 170.875L39.5625 172.938L40.5625 128.312L56.8125 128.312L54.5 157L67.1875 157ZM108.062 170.875L92.5625 172.875L90.6875 165.812L83.5625 165.812L82 172.875L66.0625 171.312L78.5 129.688L95.875 128.812L108.062 170.875ZM89.5625 156.25L87.1875 145.375L84.875 156.25L89.5625 156.25ZM147.5 157.75C147.5 160.104 147.469 162.438 147.406 164.75C147.365 167.042 147.292 169.354 147.188 171.688L129.188 171.375C129.812 167.688 130.354 164.01 130.812 160.344C131.271 156.656 131.5 152.938 131.5 149.188C131.5 148.917 131.49 148.479 131.469 147.875C131.448 147.271 131.406 146.594 131.344 145.844C131.281 145.073 131.188 144.292 131.062 143.5C130.958 142.688 130.802 141.948 130.594 141.281C130.406 140.615 130.167 140.073 129.875 139.656C129.604 139.219 129.271 139 128.875 139C128.167 139 127.562 139.208 127.062 139.625C126.583 140.042 126.177 140.583 125.844 141.25C125.531 141.896 125.281 142.625 125.094 143.438C124.906 144.25 124.76 145.062 124.656 145.875C124.573 146.688 124.51 147.458 124.469 148.188C124.448 148.896 124.438 149.479 124.438 149.938C124.333 153.625 124.25 157.292 124.188 160.938C124.125 164.562 124.042 168.229 123.938 171.938L108 172.625C108.417 165.271 108.812 157.958 109.188 150.688C109.583 143.417 109.896 136.104 110.125 128.75L124.875 128L124.75 133C125.333 132.292 125.958 131.625 126.625 131C127.312 130.375 128.042 129.844 128.812 129.406C129.583 128.948 130.396 128.594 131.25 128.344C132.125 128.073 133.042 127.938 134 127.938C135.771 127.938 137.323 128.229 138.656 128.812C139.99 129.396 141.135 130.188 142.094 131.188C143.052 132.188 143.854 133.375 144.5 134.75C145.146 136.104 145.667 137.552 146.062 139.094C146.458 140.635 146.76 142.25 146.969 143.938C147.177 145.604 147.312 147.25 147.375 148.875C147.458 150.5 147.5 152.073 147.5 153.594C147.5 155.115 147.5 156.5 147.5 157.75Z" fill="rgb(255,255,255)" fill-rule="nonzero" />
	<path id="vertical-logo" d="" fill="rgb(51,51,51)" fill-rule="nonzero" />
	<path id="vertical-logo" d="M34.6875 65.5L34.375 78.75L25.0625 79.125L23.9375 108.125L10.75 108.812L9.5625 79.8125L0.25 80.3125L0.625 65.5625L34.6875 65.5ZM74.4688 85.625C74.4688 87.5208 74.25 89.3542 73.8125 91.125C73.375 92.875 72.7396 94.5208 71.9062 96.0625C71.0938 97.6042 70.0938 99.0208 68.9062 100.312C67.7396 101.583 66.4167 102.677 64.9375 103.594C63.4792 104.51 61.8854 105.229 60.1562 105.75C58.4271 106.25 56.5938 106.5 54.6562 106.5C52.7812 106.5 50.9896 106.26 49.2812 105.781C47.5938 105.302 46.0104 104.635 44.5312 103.781C43.0521 102.906 41.7083 101.865 40.5 100.656C39.3125 99.4271 38.2917 98.0729 37.4375 96.5938C36.6042 95.0938 35.9479 93.4896 35.4688 91.7812C35.0104 90.0729 34.7812 88.2917 34.7812 86.4375C34.7812 84.625 35 82.8542 35.4375 81.125C35.875 79.375 36.5 77.7292 37.3125 76.1875C38.1458 74.6458 39.1458 73.2292 40.3125 71.9375C41.4792 70.6458 42.7812 69.5312 44.2188 68.5938C45.6771 67.6562 47.25 66.9271 48.9375 66.4062C50.625 65.8854 52.4062 65.625 54.2812 65.625C57.3021 65.625 60.0521 66.0938 62.5312 67.0312C65.0312 67.9688 67.1562 69.3125 68.9062 71.0625C70.6771 72.7917 72.0417 74.8958 73 77.375C73.9792 79.8333 74.4688 82.5833 74.4688 85.625ZM60.5938 86.4375C60.5938 85.5417 60.4583 84.6771 60.1875 83.8438C59.9375 82.9896 59.5625 82.2396 59.0625 81.5938C58.5625 80.9271 57.9375 80.3958 57.1875 80C56.4583 79.5833 55.6146 79.375 54.6562 79.375C53.6771 79.375 52.8021 79.5521 52.0312 79.9062C51.2604 80.2604 50.5938 80.75 50.0312 81.375C49.4896 81.9792 49.0729 82.6979 48.7812 83.5312C48.4896 84.3438 48.3438 85.2083 48.3438 86.125C48.3438 87 48.4688 87.875 48.7188 88.75C48.9688 89.625 49.3438 90.4167 49.8438 91.125C50.3438 91.8333 50.9583 92.4062 51.6875 92.8438C52.4375 93.2812 53.3021 93.5 54.2812 93.5C55.2604 93.5 56.1354 93.3125 56.9062 92.9375C57.6979 92.5417 58.3646 92.0208 58.9062 91.375C59.4479 90.7083 59.8646 89.9479 60.1562 89.0938C60.4479 88.2396 60.5938 87.3542 60.5938 86.4375ZM113.906 65.5625C112.969 72.8958 112.167 80.1979 111.5 87.4688C110.833 94.7188 110.198 102.021 109.594 109.375L96.7812 110.312L97.3438 105.5C96.9271 105.979 96.4375 106.396 95.875 106.75C95.3333 107.104 94.75 107.396 94.125 107.625C93.5 107.833 92.8542 107.99 92.1875 108.094C91.5208 108.177 90.8854 108.208 90.2812 108.188C88.8646 108.167 87.5312 107.896 86.2812 107.375C85.0312 106.833 83.8854 106.125 82.8438 105.25C81.8021 104.354 80.8646 103.323 80.0312 102.156C79.1979 100.969 78.4896 99.7292 77.9062 98.4375C77.3438 97.125 76.9062 95.7917 76.5938 94.4375C76.3021 93.0833 76.1562 91.7708 76.1562 90.5C76.1562 88.625 76.1875 86.6875 76.25 84.6875C76.3333 82.6667 76.4688 80.6458 76.6562 78.625C76.8438 76.6042 77.0833 74.6042 77.375 72.625C77.6875 70.6458 78.0729 68.75 78.5312 66.9375C81.0729 67.0625 83.625 67.1771 86.1875 67.2812C88.75 67.3854 91.3021 67.4167 93.8438 67.375C93.3646 69.1875 92.8854 71.0104 92.4062 72.8438C91.9479 74.6562 91.5312 76.4896 91.1562 78.3438C90.7812 80.1771 90.4792 82.0208 90.25 83.875C90.0208 85.7292 89.9062 87.6042 89.9062 89.5C89.9062 89.9375 89.9271 90.5625 89.9688 91.375C90.0104 92.1875 90.1146 92.9896 90.2812 93.7812C90.4688 94.5729 90.7396 95.2708 91.0938 95.875C91.4688 96.4583 91.9896 96.75 92.6562 96.75C93.4479 96.75 94.1562 96.4167 94.7812 95.75C95.4062 95.0625 95.9583 94.1458 96.4375 93C96.9167 91.8542 97.3229 90.5312 97.6562 89.0312C98.0104 87.5312 98.3021 85.9688 98.5312 84.3438C98.7812 82.6979 98.9792 81.0417 99.125 79.375C99.2708 77.7083 99.375 76.1458 99.4375 74.6875C99.5208 73.2083 99.5729 71.8854 99.5938 70.7188C99.6354 69.5521 99.6562 68.6458 99.6562 68C99.6562 67.5833 99.6458 67.1771 99.625 66.7812C99.6042 66.3854 99.5729 65.9792 99.5312 65.5625C100.885 65.6042 102.229 65.6354 103.562 65.6562C104.896 65.6771 106.24 65.6875 107.594 65.6875C108.635 65.6875 109.677 65.6875 110.719 65.6875C111.781 65.6667 112.844 65.625 113.906 65.5625ZM152.406 79.4375C152.406 81.0625 152.26 82.5417 151.969 83.875C151.698 85.1875 151.26 86.3958 150.656 87.5C150.052 88.6042 149.271 89.625 148.312 90.5625C147.354 91.5 146.198 92.3958 144.844 93.25L152.281 106.5L138.219 109.25L133.406 95.9375L129.531 96.0625L128.969 109.062L115.531 109.062C115.635 104.312 115.729 99.5833 115.812 94.875C115.917 90.1667 116.031 85.4375 116.156 80.6875C116.198 78.2917 116.24 75.9167 116.281 73.5625C116.323 71.2083 116.406 68.8333 116.531 66.4375C117.99 65.8958 119.427 65.4479 120.844 65.0938C122.26 64.7396 123.677 64.4688 125.094 64.2812C126.531 64.0729 127.979 63.9375 129.438 63.875C130.917 63.7917 132.427 63.75 133.969 63.75C136.344 63.75 138.635 64.0833 140.844 64.75C143.073 65.3958 145.042 66.375 146.75 67.6875C148.458 69 149.823 70.6354 150.844 72.5938C151.885 74.5521 152.406 76.8333 152.406 79.4375ZM138.406 80.4375C138.406 79.5625 138.281 78.7604 138.031 78.0312C137.802 77.3021 137.448 76.6771 136.969 76.1562C136.51 75.6146 135.927 75.1979 135.219 74.9062C134.531 74.5938 133.719 74.4375 132.781 74.4375C132.365 74.4375 131.958 74.4688 131.562 74.5312C131.167 74.5729 130.781 74.6458 130.406 74.75L129.906 86.375L130.656 86.375C131.552 86.375 132.458 86.2604 133.375 86.0312C134.312 85.8021 135.146 85.4479 135.875 84.9688C136.625 84.4896 137.229 83.875 137.688 83.125C138.167 82.375 138.406 81.4792 138.406 80.4375Z" fill="rgb(236,31,70)" fill-rule="nonzero" />
</svg>
