<svg viewBox="0 0 20.72 20.1599" xmlns="http://www.w3.org/2000/svg" xmlns:xlink="http://www.w3.org/1999/xlink" width="20.719971" height="20.159912" fill="none" customFrame="#000000">
	<path id="youtube" d="M12.0899 9.90465L9.6661 8.80425C9.45458 8.7087 9.28083 8.8158 9.28083 9.04365L9.28083 11.1163C9.28083 11.3442 9.45458 11.4513 9.6661 11.3557L12.0888 10.2553C12.3014 10.1587 12.3014 10.0012 12.0899 9.90465ZM10.36 0C4.63826 0 0 4.5129 0 10.08C0 15.6471 4.63826 20.16 10.36 20.16C16.0817 20.16 20.72 15.6471 20.72 10.08C20.72 4.5129 16.0817 0 10.36 0ZM10.36 14.175C5.05697 14.175 4.96417 13.7098 4.96417 10.08C4.96417 6.45015 5.05697 5.985 10.36 5.985C15.663 5.985 15.7558 6.45015 15.7558 10.08C15.7558 13.7098 15.663 14.175 10.36 14.175Z" fill="rgb(189,189,189)" fill-rule="nonzero" />
</svg>
